<svg xmlns="http://www.w3.org/2000/svg" viewBox="0 0 512 512">
  <!-- By Freepik https://www.flaticon.com/free-icon/electric-pole_1688834 -->
  <path  stroke="white" stroke-width="10" d="M 497,112.46875 H 479.86719 V 95.332031 c 0,-8.28125 -6.71875,-15 -15,-15 -8.28516,0 -15,6.71875 -15,15 V 112.46875 H 383.46875 V 95.332031 c 0,-8.28125 -6.71875,-15 -15,-15 -8.28516,0 -15,6.71875 -15,15 V 112.46875 H 303.13281 V 15 c 0,-8.285156 -6.71484,-15 -15,-15 h -64.26562 c -8.28516,0 -15,6.714844 -15,15 v 97.46875 H 158.53516 V 95.332031 c 0,-8.28125 -6.71875,-15 -15,-15 -8.28516,0 -15,6.71875 -15,15 V 112.46875 H 62.132812 V 95.332031 c 0,-8.28125 -6.714843,-15 -15,-15 -8.28125,0 -15,6.71875 -15,15 V 112.46875 H 15 c -8.285156,0 -15,6.71484 -15,15 v 64.26562 c 0,8.28516 6.714844,15 15,15 h 90.1875 l 103.67969,103.67969 c 0,186.58594 0,186.58594 0,186.58594 0,8.28516 6.71484,15 15,15 8.28515,0 15,-6.71484 15,-15 V 206.73437 h 34.26562 V 497 c 0,8.28516 6.71875,15 15,15 8.28516,0 15,-6.71484 15,-15 0,-60.89081 0,-121.30335 0,-186.58594 L 406.8125,206.73438 H 497 c 8.28516,0 15,-6.71875 15,-15 v -64.26954 c 0,-8.28125 -6.71484,-14.99609 -15,-14.99609 z M 238.86719,30 h 34.26562 v 82.46875 h -34.26562 z m -30,237.98828 -61.25391,-61.25391 h 61.25391 z m 94.26562,0 v -61.25391 h 61.25391 z M 482,176.73437 H 30 v -34.26953 h 452 z"/>
</svg>
