<svg xmlns="http://www.w3.org/2000/svg" viewBox="0 -80 512 512">
<!-- https://www.svgrepo.com/svg/297155/solar-panel -->
<path stroke-width="10" stroke="white" d="M 508.766,255.107 433.47,54.317 C 426.165,34.835 407.277,21.746 386.468,21.746 H 125.532 c -20.807,0 -39.696,13.089 -47.001,32.571 L 3.234,255.107 c -12.294,32.788 11.99,67.823 47.001,67.823 479.8966,0 180.89398,0 411.529,0 35.018,0 59.294,-35.041 47.002,-67.823 z M 154.5,289.465 H 50.236 c -11.706,0 -19.773,-11.657 -15.667,-22.609 L 51.19,222.535 H 162.867 Z M 167.049,189.07 H 63.739 l 25.099,-66.93 h 86.578 z m 12.55,-100.395 h -78.212 l 8.478,-22.609 C 112.3,59.573 118.596,55.21 125.532,55.21 h 58.25 z m 37.907,-33.464 h 76.989 l 4.183,33.465 h -85.356 z m -8.367,66.929 h 93.722 l 8.366,66.93 H 200.773 Z m -20.915,167.325 8.366,-66.93 h 118.821 l 8.366,66.93 z M 328.219,55.211 h 58.25 c 6.936,0 13.232,4.363 15.667,10.856 l 8.478,22.609 h -78.212 z m 8.366,66.929 h 86.578 l 25.099,66.93 H 344.951 Z m 125.18,167.325 H 357.5 l -8.366,-66.93 h 111.677 l 16.621,44.321 c 4.11,10.961 -3.971,22.609 -15.667,22.609 z" />
</svg>
